<?xml version="1.0" encoding="UTF-8" standalone="no"?>
<!-- Created with Inkscape (http://www.inkscape.org/) -->

<svg
   width="600"
   height="500"
   viewBox="0 0 158.75 132.29167"
   version="1.1"
   id="svg5"
   sodipodi:docname="poplar.svg"
   inkscape:export-filename="/home/ken/px/poplar.png"
   inkscape:export-xdpi="96"
   inkscape:export-ydpi="96"
   inkscape:version="1.1 (c68e22c387, 2021-05-23)"
   xmlns:inkscape="http://www.inkscape.org/namespaces/inkscape"
   xmlns:sodipodi="http://sodipodi.sourceforge.net/DTD/sodipodi-0.dtd"
   xmlns:xlink="http://www.w3.org/1999/xlink"
   xmlns="http://www.w3.org/2000/svg"
   xmlns:svg="http://www.w3.org/2000/svg">
  <sodipodi:namedview
     id="namedview13"
     pagecolor="#ffffff"
     bordercolor="#666666"
     borderopacity="1.0"
     inkscape:pageshadow="2"
     inkscape:pageopacity="0.0"
     inkscape:pagecheckerboard="0"
     showgrid="false"
     inkscape:zoom="0.48549133"
     inkscape:cx="-2.059769"
     inkscape:cy="446.96988"
     inkscape:window-width="2302"
     inkscape:window-height="1294"
     inkscape:window-x="0"
     inkscape:window-y="0"
     inkscape:window-maximized="1"
     inkscape:current-layer="svg5" />
  <defs
     id="defs2">
    <linearGradient
       id="linearGradient1280">
      <stop
         style="stop-color:#767676;stop-opacity:1"
         offset="0"
         id="stop1276" />
      <stop
         style="stop-color:#000000;stop-opacity:1"
         offset="1"
         id="stop1278" />
    </linearGradient>
    <linearGradient
       id="linearGradient1266">
      <stop
         style="stop-color:#8e8e8e;stop-opacity:1"
         offset="0"
         id="stop1262" />
      <stop
         style="stop-color:#010101;stop-opacity:1"
         offset="1"
         id="stop1264" />
    </linearGradient>
    <linearGradient
       id="linearGradient44493">
      <stop
         style="stop-color:#ffffff;stop-opacity:1"
         offset="0"
         id="stop44489" />
      <stop
         style="stop-color:#b9b9b9;stop-opacity:1"
         offset="1"
         id="stop44491" />
    </linearGradient>
    <radialGradient
       xlink:href="#linearGradient1266"
       id="radialGradient44495"
       cx="105.71719"
       cy="14.795127"
       fx="105.71719"
       fy="14.795127"
       r="3.9322848"
       gradientTransform="matrix(2.0865686,0.01422625,-0.05659853,8.3013251,-186.26274,-94.983185)"
       gradientUnits="userSpaceOnUse" />
    <linearGradient
       xlink:href="#linearGradient1280"
       id="linearGradient45292"
       gradientUnits="userSpaceOnUse"
       x1="106.40829"
       y1="22.175907"
       x2="79.675232"
       y2="16.720142"
       gradientTransform="matrix(1.1553727,0,0,1.1553727,-88.236762,3.1906526)" />
  </defs>
  <g
     id="g2212"
     transform="matrix(3.3549122,0,0,3.3549122,-9.3903828,-0.42820328)">
    <path
       id="path44218"
       style="color:#000000;fill:url(#radialGradient44495);fill-opacity:1;stroke-width:0.999996;stroke-linecap:round;stroke-linejoin:round;-inkscape-stroke:none"
       d="m 34.311275,0.45578338 c -0.203392,0.009266 -0.251479,0.24342039 -0.236054,0.40793761 -0.06759,1.20280041 -0.138125,2.41075551 -0.05569,3.61439701 0.06932,0.5455135 0.185449,1.0849297 0.216274,1.6353466 0.07036,0.862103 0.09728,1.7299409 0.118299,2.5973135 C 34.342551,8.9758988 34.161411,9.192671 34.008925,9.394005 33.90344,9.3558546 33.939256,9.2049237 33.890072,9.1177912 33.779503,8.7104164 33.59298,8.328811 33.359606,7.9785714 32.886631,7.1287281 32.620167,6.1836662 32.318303,5.2589461 32.26712,5.1353832 32.245053,4.9913917 32.350423,4.8884944 32.75233,4.4539081 33.273276,4.0910957 33.487737,3.5156874 33.624533,3.1318833 33.651823,2.6783506 33.46486,2.3080358 33.321929,2.138717 32.995814,2.3086644 33.073212,2.5256751 c 0.08307,0.3182327 0.07729,0.6451156 -0.07891,0.9383397 -0.20249,0.4076369 -0.584757,0.6790948 -0.894443,0.9976019 -0.09543,-0.035395 -0.0092,-0.1581361 -0.08319,-0.2199488 -0.113573,-0.1956558 -0.442831,-0.176462 -0.513217,0.047165 -0.222813,0.6447354 -0.424587,1.3187167 -0.400267,2.0084646 0.026,0.7019048 0.368795,1.332991 0.547034,1.9991566 0.08041,0.5266139 -0.10872,1.0440403 -0.238307,1.547296 -0.07498,0.2637779 -0.170221,0.5456769 -0.06262,0.8155009 0.185472,0.491102 0.431,0.96085 0.564053,1.471612 0.09601,0.365102 0.183046,0.743342 0.164618,1.122618 -0.09971,0.670208 -0.146594,1.392601 0.138367,2.026634 0.336549,0.705139 0.317127,1.506684 0.330702,2.269738 0.0092,0.519024 -0.06586,1.021421 -0.08584,1.540421 -0.02126,0.644926 0.178182,1.281858 0.236297,1.910668 0.06539,0.45482 0.05546,0.9208 -0.06539,1.365756 -0.06124,0.286115 -0.124411,0.574438 -0.181128,0.859882 -0.109298,0.02035 -0.06678,-0.136547 -0.112533,-0.193396 -0.147484,-0.413736 -0.280721,-0.832063 -0.371903,-1.262125 -0.116808,-0.439112 -0.232392,-0.92778 -0.599038,-1.230622 -0.142134,-0.141772 -0.134474,-0.390624 -0.137524,-0.58732 0.0069,-0.829831 0.231826,-1.64044 0.249272,-2.468574 -0.04183,-0.605041 -0.320316,-1.165586 -0.631284,-1.675269 -0.125994,-0.199489 -0.290704,-0.372524 -0.455379,-0.537292 -0.09948,-0.294194 -0.01467,-0.610582 0.0012,-0.9121 0.06435,-0.611812 0.199255,-1.233695 0.09035,-1.847757 -0.172971,-0.611874 -0.824879,-0.978096 -0.905558,-1.628807 0.0012,-0.157631 -0.0035,-0.384642 -0.200215,-0.419657 -0.196968,-0.04292 -0.332493,0.175472 -0.288115,0.350435 0.0134,0.533844 0.345318,0.985183 0.667204,1.378302 0.161637,0.19702 0.293523,0.430465 0.28287,0.693107 0.01641,0.477848 -0.0788,0.944192 -0.125646,1.424528 -0.04032,0.383041 -0.101442,0.789098 0.02808,1.160498 0.111147,0.213257 0.332955,0.336631 0.455344,0.54372 0.273488,0.389093 0.473992,0.846767 0.579004,1.318903 0.06366,0.415463 -0.05476,0.828544 -0.09613,1.240465 -0.08388,0.630711 -0.191677,1.275597 -0.08896,1.910147 0.0372,0.20599 0.173005,0.371039 0.332008,0.497165 0.269398,0.33455 0.327606,0.779806 0.441248,1.181708 0.12939,0.575918 0.365029,1.119403 0.521039,1.687896 0.06031,0.239198 0.162214,0.475835 0.18137,0.720825 -0.01548,0.252474 0.07984,0.508285 0.264904,0.679537 0.04598,0.227552 0.02831,0.46571 0.03778,0.697889 -0.0023,0.508194 -0.02033,1.023642 -0.04379,1.526561 -0.07394,0.02259 -0.05361,-0.108766 -0.09058,-0.147163 -0.128732,-0.32155 -0.307422,-0.631533 -0.332031,-0.983712 -0.02657,-0.279314 -0.259647,-0.461652 -0.488515,-0.585118 -0.09416,-0.04978 -0.173745,-0.136366 -0.133954,-0.25086 0.06967,-0.531224 0.0023,-1.073027 -0.09671,-1.596616 -0.07556,-0.36078 -0.256053,-0.718091 -0.575398,-0.919115 -0.06701,-0.124494 0.0092,-0.278637 -0.03559,-0.413832 -0.0528,-0.355066 -0.406483,-0.513748 -0.665021,-0.702951 -0.580413,-0.404581 -1.056288,-1.065906 -1.012164,-1.801198 -0.0092,-0.174466 0.109876,-0.408195 -0.06736,-0.532235 -0.149667,-0.115953 -0.387258,-0.01568 -0.400268,0.176355 -0.177222,0.855523 0.214542,1.750833 0.862336,2.310217 0.227839,0.213041 0.499907,0.372119 0.745874,0.559811 0.09982,0.175199 -0.02496,0.389402 0.08041,0.567901 0.07891,0.236744 0.35671,0.301829 0.452837,0.525658 0.192496,0.407063 0.203218,0.882966 0.230416,1.306261 0.03882,0.32339 -0.135456,0.685823 0.07995,0.974582 0.123775,0.197477 0.393289,0.237485 0.514523,0.430505 0.04113,0.223248 0.06227,0.454387 0.170417,0.659715 0.274378,0.621227 0.505995,1.261481 0.731305,1.90165 0.01733,0.310955 -0.0092,0.624663 -0.0046,0.936832 -0.01502,0.709044 -0.0081,1.422222 -0.03974,2.128632 -0.223772,0.492444 -0.254655,1.043464 -0.206419,1.575133 0.02981,0.182898 0.0035,0.395563 0.114036,0.552538 0.08538,0.09837 0.230578,0.09684 0.342718,0.07248 0.103984,0.119497 0.268659,0.201643 0.424045,0.127613 0.193144,-0.07399 0.218377,-0.298063 0.206592,-0.476906 0.02068,-0.420868 0.0058,-0.846839 0.05084,-1.26448 0.134671,-0.231842 0.112418,-0.514056 0.177281,-0.768289 0.08735,-0.548337 0.209122,-1.083522 0.316422,-1.629265 0.03189,-0.16284 -0.05592,-0.348508 0.03871,-0.493844 0.279727,-0.280996 0.702443,-0.47896 0.787536,-0.903556 0.05049,-0.181452 0.02184,-0.376016 0.02565,-0.556823 0.149482,-0.05466 0.323816,-0.06118 0.454558,-0.168824 0.377472,-0.266614 0.486724,-0.746951 0.608593,-1.165391 0.12805,-0.441449 0.210046,-0.904014 0.394455,-1.330128 0.200434,-0.372476 0.605612,-0.562819 0.913692,-0.832974 0.333025,-0.254491 0.639591,-0.655969 0.558172,-1.099007 -0.03917,-0.218131 -0.343376,-0.304471 -0.483512,-0.128707 -0.13207,0.134717 -0.01456,0.343642 -0.139476,0.485772 -0.331338,0.447563 -0.901098,0.645913 -1.227618,1.10073 -0.283806,0.419844 -0.357923,0.936195 -0.497631,1.414175 -0.09994,0.358289 -0.188487,0.735242 -0.397032,1.047149 -0.141395,0.172511 -0.38043,0.0282 -0.547346,0.149563 -0.249272,0.121357 -0.238181,0.432747 -0.203346,0.665834 0.03859,0.194281 -0.0104,0.407066 -0.180931,0.524814 -0.17177,0.132446 -0.343019,0.271811 -0.496568,0.421665 -0.09624,-0.04947 -0.01271,-0.18001 -0.03663,-0.264536 0.01779,-0.757028 -0.01514,-1.518167 0.0818,-2.271011 0.09659,-0.129198 0.205437,-0.258297 0.225448,-0.42691 0.06597,-0.401483 -0.032,-0.806891 -0.05153,-1.207444 0.13742,-0.08014 0.299103,-0.126829 0.411036,-0.250152 0.271882,-0.247101 0.400128,-0.610868 0.448157,-0.9665 0.08723,-0.164815 0.296711,-0.167193 0.45286,-0.116932 0.266059,0.04892 0.497457,-0.184535 0.519456,-0.439836 0.04933,-0.285945 -0.0069,-0.578327 -0.0058,-0.862398 0.144814,-0.153727 0.375276,-0.212294 0.491022,-0.40185 0.195003,-0.248348 0.101095,-0.582197 0.267907,-0.846109 0.269237,-0.626518 0.512131,-1.265774 0.728336,-1.911848 0.07314,-0.267587 -0.308415,-0.471104 -0.494916,-0.272163 -0.148188,0.198848 -0.183149,0.456296 -0.286162,0.678881 -0.19282,0.539614 -0.418858,1.059552 -0.626524,1.593917 -0.05222,0.167724 6.24e-4,0.402884 -0.188118,0.493114 -0.214888,0.123629 -0.449625,0.277648 -0.489959,0.544407 -0.0595,0.259583 0.06817,0.531881 0.0046,0.784682 -0.188407,0.01437 -0.38809,0.02272 -0.556024,0.126388 -0.250265,0.124085 -0.419585,0.379821 -0.433519,0.659173 -0.02715,0.211116 -0.129528,0.426851 -0.304787,0.551567 -0.0907,-0.0044 -0.0394,-0.170627 -0.07649,-0.233681 -0.07787,-0.439381 -0.199082,-0.890323 -0.08954,-1.335498 0.06701,-0.353792 0.09786,-0.7139 0.159476,-1.067729 0.132579,-0.330295 0.224027,-0.679618 0.397206,-0.994036 0.271663,-0.550896 0.676274,-1.01758 1.040344,-1.505541 0.175281,-0.223971 0.19223,-0.514424 0.170891,-0.78646 -5.78e-4,-0.529962 -0.04448,-1.060881 0.140793,-1.556486 0.231214,-0.473505 0.606086,-0.858953 0.839968,-1.331975 0.235996,-0.428212 0.35136,-0.911768 0.365629,-1.398736 0.0208,-0.413369 0.02657,-0.834977 -0.0431,-1.242627 -0.153468,-0.206388 -0.153295,-0.476757 -0.251178,-0.708953 -0.130927,-0.402672 -0.325134,-0.794011 -0.63021,-1.093434 -0.0736,-0.114798 0.03143,-0.2527 0.0491,-0.373216 0.181127,-0.506092 0.389649,-1.0067212 0.474349,-1.5411974 0.149852,-0.8455026 0.131875,-1.7324307 -0.114844,-2.5578679 -0.09023,-0.0873 -0.198747,-0.068063 -0.301772,-0.016972 -0.13259,0.028619 -0.146501,0.1807973 -0.09058,0.2832858 0.147472,0.6164349 0.180204,1.2918928 0.104561,1.8951207 -0.06493,0.5821518 -0.253292,1.1391808 -0.469751,1.6802318 -0.07695,0.245492 -0.205599,0.521213 -0.103637,0.776848 0.119858,0.217552 0.337716,0.364408 0.438637,0.596492 0.173676,0.327022 0.28012,0.687885 0.35872,1.047377 -0.02981,0.34291 0.03616,0.685984 0.01259,1.030204 -0.0119,0.503834 -0.09,1.023976 -0.370066,1.454222 -0.346242,0.58196 -0.87055,1.104032 -0.945002,1.808417 -0.08053,0.516805 -0.02484,1.041337 -0.04737,1.560555 -0.118749,0.294596 -0.365525,0.516885 -0.54723,0.774019 -0.169875,0.225636 -0.325388,0.469473 -0.472062,0.705381 -0.105833,-0.01552 -0.03096,-0.153025 -0.06343,-0.221647 -0.02877,-0.401577 -0.05731,-0.808213 -0.026,-1.209107 0.232992,-0.654455 0.300096,-1.359554 0.242501,-2.049781 -0.03859,-0.640346 2.19e-4,-1.273565 0.06378,-1.908618 0.04598,-0.407067 0.123371,-0.80535 0.308,-1.181192 0.206915,-0.391226 0.299715,-0.832069 0.299588,-1.273047 -0.01155,-0.28859 0.02345,-0.590363 -0.07106,-0.867751 -0.08538,-0.36232 -0.108027,-0.741197 -0.180954,-1.108099 -0.02669,-0.175057 -0.0677,-0.343696 -0.08492,-0.510009 0.212462,-0.3935503 0.576115,-0.711371 0.67446,-1.1635547 0.05858,-0.303045 -0.0023,-0.6021914 0.0023,-0.9118544 -0.03501,-1.1173984 -0.08134,-2.2395234 -0.288,-3.3405962 -0.09335,-0.7622625 -0.0632,-1.5333756 -0.0446,-2.2992806 0.01583,-0.5707482 0.05777,-1.1412089 0.07822,-1.71118099 C 34.530726,0.53593413 34.425102,0.44749046 34.311148,0.45577853 Z M 31.830008,5.3271426 c 0.06343,0.04573 0.04645,0.1664626 0.08873,0.2343985 0.32548,1.0221368 0.635686,2.0695395 1.229074,2.9749097 0.21974,0.4047432 0.326496,0.8408013 0.432791,1.2901474 0.05107,0.1232367 0.01456,0.2418338 -0.05361,0.3496288 -0.21431,0.431034 -0.296977,0.915403 -0.324786,1.39155 -0.0907,0.333288 -0.06343,0.680478 -0.1041,1.024145 -0.0134,0.13271 -0.01409,0.271327 -0.03524,0.400519 -0.137929,0.05494 -0.258573,0.172597 -0.238885,0.333405 0.01629,0.572648 0.04009,1.151391 0.04864,1.720637 -0.08816,0.02095 -0.07152,-0.121849 -0.110454,-0.171103 -0.151065,-0.419256 -0.109414,-0.862145 -0.06794,-1.284145 0.02669,-0.159182 0.0058,-0.315003 -0.03189,-0.469459 -0.03951,-0.874643 -0.346762,-1.708387 -0.710427,-2.495665 -0.07637,-0.157369 -0.09023,-0.334596 -0.01941,-0.496567 0.163242,-0.629909 0.401145,-1.2791056 0.286139,-1.9383194 -0.147217,-0.7328387 -0.602446,-1.4091981 -0.535134,-2.1796604 0.02218,-0.2283937 0.04829,-0.4780039 0.120991,-0.6852154 l 0.02033,6.309e-4 z m 1.953389,5.6061044 c 0.05222,0.133247 0.0476,0.30222 0.08018,0.448235 0.03767,0.189422 0.03408,0.378946 0.01652,0.568915 0.04529,0.538659 0.06609,1.119229 -0.208845,1.605589 0.0081,0.05104 -0.0915,0.134406 -0.07729,0.03289 0.04333,-0.638129 0.102943,-1.277827 0.121984,-1.916291 -0.07857,-0.22847 0.0023,-0.474404 0.03258,-0.70526 0.0046,-0.02073 0.0092,-0.03931 0.03489,-0.03408 z" />
    <path
       id="path44228"
       style="font-weight:bold;font-size:18.4739px;line-height:1.25;font-family:Yomogi;-inkscape-font-specification:'Yomogi Bold';letter-spacing:0px;word-spacing:0px;fill:url(#linearGradient45292);fill-opacity:1;stroke-width:0.264583"
       d="m 37.753396,24.027219 c -0.565151,0.02014 -1.141196,0.137212 -1.623403,0.445638 -0.410042,0.253043 -0.779322,0.597246 -1.001488,1.029087 -0.09913,0.204754 -0.140193,0.490245 0.04356,0.66134 0.156854,0.139787 0.387997,0.0942 0.559074,0.0076 0.129459,-0.04899 0.239601,-0.137703 0.309674,-0.257302 0.310298,-0.410886 0.776445,-0.693469 1.281459,-0.789402 0.490663,-0.106838 1.015953,-0.08398 1.494601,0.09092 0.611655,0.236901 1.062943,0.768139 1.342578,1.346731 0.13675,0.290883 0.221115,0.603115 0.230508,0.929418 0.02334,0.548195 -0.0357,1.102718 -0.09324,1.654268 -0.02923,0.251464 -0.05661,0.503214 -0.0952,0.753457 -0.170429,-0.586623 -0.553782,-1.132513 -1.113837,-1.401601 -0.523326,-0.246172 -1.113895,-0.306792 -1.685966,-0.292684 -0.587623,0.041 -1.145598,0.330746 -1.532498,0.77242 -0.545082,0.58359 -0.872953,1.363656 -0.902069,2.162352 -0.02114,0.679344 0.04691,1.392835 0.392457,1.992589 0.25171,0.427244 0.62642,0.800736 1.103335,0.963734 0.77224,0.298348 1.646244,0.305118 2.434636,0.06387 0.508711,-0.152674 0.961085,-0.480092 1.260107,-0.919769 0.06828,-0.09716 0.131054,-0.198254 0.188696,-0.302147 0.283251,0.374453 0.665125,0.661469 1.057928,0.912001 0.484275,0.274541 1.079904,0.386577 1.621127,0.232206 0.234425,-0.08091 0.41821,-0.298834 0.430665,-0.550679 0.03304,-0.290877 0.01202,-0.584811 0.03143,-0.876792 0.02912,-0.938168 0.07371,-1.878909 0.259116,-2.798571 0.111724,-0.487264 0.352874,-0.933812 0.610857,-1.357759 0.272552,-0.425608 0.606628,-0.816681 0.993921,-1.12981 0.7863,-0.64227 1.785224,-0.947161 2.787995,-1.006375 0.256019,-0.0045 0.584133,-0.03453 0.733442,-0.283237 0.149239,-0.234248 0.02091,-0.586883 -0.250127,-0.66001 -0.236412,-0.07234 -0.487983,-0.03532 -0.731258,-0.04173 -1.029772,0.03271 -2.075708,0.317415 -2.905531,0.945476 -0.630129,0.467299 -1.122838,1.101972 -1.479571,1.796906 -0.02623,-1.070341 -0.04749,-2.141375 -0.07741,-3.211275 -0.05915,-0.238545 -0.156784,-0.517914 -0.408528,-0.611401 -0.261669,-0.0905 -0.573515,0.09564 -0.615871,0.370133 -0.06886,0.290378 -0.0081,0.589835 -0.02253,0.884369 0.02392,2.504448 0.04783,5.008895 0.07163,7.513343 -0.545105,-0.06975 -1.072325,-0.362984 -1.363721,-0.837698 -0.10433,-0.160649 -0.189897,-0.337642 -0.258538,-0.508641 0.160874,-0.733019 0.326659,-1.465613 0.462045,-2.203826 0.144711,-0.87325 0.247042,-1.772444 0.09624,-2.652158 -0.0833,-0.570241 -0.35961,-1.094741 -0.695974,-1.555419 -0.455008,-0.598223 -1.123322,-1.032767 -1.861467,-1.183847 -0.353867,-0.07792 -0.71722,-0.103833 -1.078979,-0.09575 z m -0.140621,5.18812 c 0.361701,0.01421 0.733535,0.07945 1.052591,0.257029 0.289306,0.190905 0.457666,0.508032 0.631689,0.797643 0.07279,0.143202 0.164536,0.282592 0.209215,0.436255 0.06262,0.398456 0.09278,0.814574 0.02218,1.205204 -0.05003,0.322692 -0.204155,0.618834 -0.421573,0.85246 -0.235603,0.267466 -0.561973,0.44786 -0.913865,0.504511 -0.326878,0.05697 -0.695557,0.04556 -1.030812,-0.042 -0.247018,-0.06617 -0.50053,-0.213132 -0.676494,-0.414401 -0.259404,-0.295467 -0.453483,-0.674416 -0.493875,-1.059792 -0.03293,-0.294939 0.0081,-0.60706 0.029,-0.908281 0.05523,-0.589064 0.353798,-1.182818 0.877967,-1.484827 0.219279,-0.112914 0.470433,-0.142614 0.713974,-0.143803 z M 22.895124,29.050186 q 0.264135,-2.041039 1.416721,-3.169614 1.152587,-1.152588 2.929493,-1.1766 1.752889,0 2.809431,0.912465 1.056542,0.984501 1.3687,2.233138 0.288139,1.29666 0.07198,2.80943 -0.216112,1.488757 -1.464747,2.665357 -1.296663,1.128575 -3.09758,0.960489 -1.824929,-0.168085 -2.977516,-1.752892 0.04803,1.848941 0.12006,3.337699 0.07204,1.488758 0.192099,2.641345 0,0.672343 -0.432221,0.720367 -0.384195,0.02401 -0.576293,-0.600306 -0.07204,-0.888452 -0.120061,-1.704868 -0.04803,-0.792403 -0.07204,-1.536782 -0.02401,-0.744379 -0.07204,-1.464746 -0.04803,-0.744379 -0.09605,-1.464746 -0.12006,-1.440733 0,-3.409736 z m 2.641345,-2.785418 q -1.368696,1.128575 -1.560794,2.857455 -0.168086,1.680856 0.720366,2.881467 0.936477,1.200611 2.329187,1.29666 1.416719,0.144073 2.353195,-0.768391 0.936475,-0.912465 1.08055,-2.521284 0.192104,-1.656843 -0.528271,-2.857455 -0.768392,-1.248636 -2.209118,-1.392709 -1.440735,-0.09605 -2.185115,0.504257 z m -7.980937,-1.621765 c -1.234278,0.03663 -2.440333,0.701389 -3.091497,1.756873 -0.439539,0.706629 -0.677745,1.521995 -0.810668,2.338178 -0.163291,1.137712 0.0082,2.327176 0.500982,3.366338 0.458176,0.952061 1.314009,1.710175 2.332392,2.00819 0.934924,0.286227 1.983575,0.349664 2.892052,-0.06378 1.242527,-0.562257 2.141882,-1.747692 2.476608,-3.056165 0.317063,-1.174736 0.336568,-2.448933 -0.0788,-3.602465 -0.272514,-0.838179 -0.784207,-1.611155 -1.514129,-2.117071 -0.565975,-0.424534 -1.278521,-0.635688 -1.983848,-0.608518 -0.240173,-0.02455 -0.481859,-0.03098 -0.723097,-0.02158 z m 0.620879,1.025318 c 0.641248,-0.03783 1.216278,0.312526 1.716153,0.674121 0.567766,0.437535 0.836159,1.143571 1.022508,1.812327 0.229681,0.919838 0.184603,1.886204 -0.104238,2.787279 -0.396209,1.219577 -1.540482,2.208938 -2.842869,2.272828 -0.627283,0.01805 -1.246214,-0.09324 -1.799973,-0.39777 -0.75524,-0.437251 -1.226823,-1.249458 -1.402619,-2.088024 -0.149091,-0.634721 -0.162894,-1.339297 -0.04536,-1.973251 0.103544,-0.512175 0.240553,-1.02081 0.480627,-1.493754 0.427133,-0.847433 1.297705,-1.435487 2.236909,-1.545887 0.244408,-0.03633 0.491929,-0.04863 0.738857,-0.04787 z M 5.7503046,17.883097 q 0.9124648,0 1.6568437,0.02401 0.7683922,0.02401 1.3446852,0.07204 1.1765992,0.120062 2.2091255,0.576294 0.96049,0.456232 1.704869,1.29666 0.672343,0.768391 0.960489,1.800917 0.144073,0.504257 0.216111,1.008514 0.09605,0.504256 0.12006,1.056537 0.02401,1.080551 -0.360183,2.185113 -0.192098,0.576294 -0.504256,1.104562 -0.31216,0.504257 -0.792405,0.984502 -0.960489,0.984501 -2.017028,1.296661 -1.0805501,0.360182 -2.4492474,0.432219 -0.6723425,0.02401 -1.3686972,0.07204 -0.6723414,0.02401 -1.3686961,0.07204 v 4.538311 q 0,0.744378 -0.5282699,0.744378 -0.5522809,0 -0.5042566,-0.744378 L 3.9974113,19.011672 Q 3.9013651,18.315317 4.3575952,18.003157 Z M 5.0779632,28.760635 q 1.3686961,-0.07204 2.5452953,-0.07204 1.1525871,0 2.1851125,-0.360184 1.032528,-0.33617 1.728882,-1.152585 0.744379,-0.768393 1.104563,-1.872954 0.336171,-1.080551 0.192097,-2.401223 Q 12.641816,21.532953 11.729351,20.476415 10.792873,19.395865 9.03998,19.13173 7.2630757,18.867596 5.0299378,19.05969 Z" />
  </g>
</svg>
